<?xml version="1.0" encoding="UTF-8"?>
<svg width="1000px" height="403px" viewBox="0 0 1000 403" version="1.1" xmlns="http://www.w3.org/2000/svg" xmlns:xlink="http://www.w3.org/1999/xlink">
    <!-- Generator: Sketch 52.2 (67145) - http://www.bohemiancoding.com/sketch -->
    <title>saml</title>
    <desc>Created with Sketch.</desc>
    <defs>
        <rect id="path-1" x="364" y="193" width="253" height="153" rx="10"></rect>
        <mask id="mask-2" maskContentUnits="userSpaceOnUse" maskUnits="objectBoundingBox" x="0" y="0" width="253" height="153" fill="white">
            <use xlink:href="#path-1"></use>
        </mask>
        <polygon id="path-3" points="1 0.4951 1.5052 0.4951 1.5052 1.4951 1 1.4951"></polygon>
        <polygon id="path-5" points="0.5047 0.5 1.01 0.5 1.01 1.5 0.5047 1.5"></polygon>
        <polygon id="path-7" points="0.3929 0.4951 1.3929 0.4951 1.3929 1 0.3929 1"></polygon>
        <polygon id="path-9" points="0.3875 0.99 1.3875 0.99 1.3875 1.4951 0.3875 1.4951"></polygon>
        <polygon id="path-11" points="1 0.4951 1.5051 0.4951 1.5051 1.4951 1 1.4951"></polygon>
        <polygon id="path-13" points="0.5051 0.5 1.01 0.5 1.01 1.5 0.5051 1.5"></polygon>
        <polygon id="path-15" points="0.3928 0.4951 1.3928 0.4951 1.3928 1 0.3928 1"></polygon>
        <polygon id="path-17" points="0.3875 0.99 1.3875 0.99 1.3875 1.4951 0.3875 1.4951"></polygon>
        <polygon id="path-19" points="1 0.4951 1.505 0.4951 1.505 1.4951 1 1.4951"></polygon>
        <polygon id="path-21" points="0.505 0.5 1.01 0.5 1.01 1.5 0.505 1.5"></polygon>
        <polygon id="path-23" points="0.3927 0.4951 1.3927 0.4951 1.3927 1 0.3927 1"></polygon>
        <polygon id="path-25" points="0.3878 0.99 1.3878 0.99 1.3878 1.4951 0.3878 1.4951"></polygon>
    </defs>
    <g id="saml" stroke="none" stroke-width="1" fill="none" fill-rule="evenodd">
        <path d="M284.994301,74.9480004 C292.005927,71.3419192 296.808753,64.0777896 296.808753,55.6861948 C296.808753,43.7088538 287.045817,34 274.99886,34 C262.954183,34 253.188967,43.7088538 253.188967,55.6861948 C253.188967,64.0777896 257.991794,71.3419192 265.005699,74.9480004 C251.791657,78.8116588 241.812172,90.1315 240,104 L310,104 C308.187828,90.1315 298.208343,78.8116588 284.994301,74.9480004" id="Fill-1" fill="#4A4C54"></path>
        <g id="Group" transform="translate(672.000000, 34.000000)">
            <g id="Group-31">
                <polygon id="Stroke-1" stroke="#FFFFFF" stroke-width="2.60000014" points="1.07633908 68.8157258 69.6193255 68.8157258 69.6193255 0.00526830065 1.07633908 0.00526830065"></polygon>
                <polygon id="Fill-3" fill="#4A4C54" points="1.05599038 20.8634382 69.5989768 20.8634382 69.5989768 0.00526830065 1.05599038 0.00526830065"></polygon>
                <polygon id="Fill-4" fill="#4A4C54" points="1.05599038 43.7740951 69.5989768 43.7740951 69.5989768 25.0565755 1.05599038 25.0565755"></polygon>
                <polygon id="Fill-5" fill="#4A4C54" points="1.05599038 68.8157258 69.5989768 68.8157258 69.5989768 47.9790592 1.05599038 47.9790592"></polygon>
                <g id="Group-30" transform="translate(8.567873, 7.536788)">
                    <path d="M5.14211626,2.89337222 C5.14211626,4.1513134 4.12575229,5.17164346 2.87270082,5.17164346 C1.61857837,5.17164346 0.602214395,4.1513134 0.602214395,2.89337222 C0.602214395,1.63435588 1.61857837,0.614025817 2.87270082,0.614025817 C4.12575229,0.614025817 5.14211626,1.63435588 5.14211626,2.89337222" id="Fill-6" fill="#FFFFFF"></path>
                    <path d="M12.0423601,2.89337222 L50.7263081,2.89337222" id="Stroke-8" stroke="#FFFFFF" stroke-width="5.20000029"></path>
                    <path d="M5.14211626,26.8303801 C5.14211626,28.0893964 4.12575229,29.1097265 2.87270082,29.1097265 C1.61857837,29.1097265 0.602214395,28.0893964 0.602214395,26.8303801 C0.602214395,25.5724389 1.61857837,24.5521088 2.87270082,24.5521088 C4.12575229,24.5521088 5.14211626,25.5724389 5.14211626,26.8303801" id="Fill-10" fill="#FFFFFF"></path>
                    <path d="M12.0423601,26.8303801 L50.7263081,26.8303801" id="Stroke-12" stroke="#FFFFFF" stroke-width="5.20000029"></path>
                    <path d="M5.14211626,50.926082 C5.14211626,52.1840232 4.12575229,53.2043533 2.87270082,53.2043533 C1.61857837,53.2043533 0.602214395,52.1840232 0.602214395,50.926082 C0.602214395,49.6670657 1.61857837,48.6478108 2.87270082,48.6478108 C4.12575229,48.6478108 5.14211626,49.6670657 5.14211626,50.926082" id="Fill-14" fill="#FFFFFF"></path>
                    <path d="M12.0423601,50.926082 L50.7263081,50.926082" id="Stroke-16" stroke="#FFFFFF" stroke-width="5.20000029"></path>
                </g>
            </g>
        </g>
        <use id="Rectangle" stroke="#494B54" mask="url(#mask-2)" stroke-width="2" stroke-dasharray="5" xlink:href="#path-1"></use>
        <g id="Group-37" transform="translate(533.000000, 270.000000)">
            <path d="M44.8632,43.4103 C46.0302,42.1933 47.6562,41.4383 49.4552,41.4383 C51.8452,41.4383 53.9312,42.7713 55.0422,44.7503 C56.0072,44.3193 57.0752,44.0793 58.1992,44.0793 C62.5102,44.0793 66.0062,47.6053 66.0062,51.9543 C66.0062,56.3043 62.5102,59.8293 58.1992,59.8293 C57.6732,59.8293 57.1582,59.7763 56.6612,59.6763 C55.6832,61.4203 53.8202,62.5993 51.6802,62.5993 C50.7852,62.5993 49.9382,62.3923 49.1832,62.0243 C48.1932,64.3563 45.8822,65.9923 43.1902,65.9923 C40.3862,65.9923 37.9972,64.2183 37.0802,61.7303 C36.6792,61.8153 36.2632,61.8593 35.8382,61.8593 C32.5002,61.8593 29.7942,59.1253 29.7942,55.7533 C29.7942,53.4923 31.0092,51.5183 32.8162,50.4633 C32.4442,49.6063 32.2382,48.6623 32.2382,47.6693 C32.2382,43.7903 35.3862,40.6453 39.2712,40.6453 C41.5512,40.6453 43.5782,41.7303 44.8632,43.4103" id="Fill-1" fill="#03A5DE"></path>
            <path d="M35.039,53.7897 C35.016,53.8497 35.047,53.8617 35.054,53.8717 C35.122,53.9207 35.191,53.9567 35.261,53.9967 C35.63,54.1927 35.979,54.2497 36.344,54.2497 C37.087,54.2497 37.548,53.8547 37.548,53.2187 L37.548,53.2067 C37.548,52.6187 37.027,52.4047 36.539,52.2497 L36.476,52.2297 C36.107,52.1097 35.789,52.0067 35.789,51.7647 L35.789,51.7517 C35.789,51.5447 35.975,51.3917 36.263,51.3917 C36.583,51.3917 36.962,51.4977 37.206,51.6337 C37.206,51.6337 37.279,51.6797 37.305,51.6097 C37.319,51.5717 37.443,51.2397 37.456,51.2037 C37.47,51.1647 37.446,51.1347 37.42,51.1197 C37.141,50.9497 36.755,50.8337 36.355,50.8337 L36.282,50.8347 C35.601,50.8347 35.127,51.2457 35.127,51.8337 L35.127,51.8467 C35.127,52.4657 35.65,52.6677 36.141,52.8077 L36.22,52.8317 C36.578,52.9417 36.886,53.0367 36.886,53.2877 L36.886,53.3007 C36.886,53.5307 36.685,53.7017 36.363,53.7017 C36.237,53.7017 35.837,53.6997 35.406,53.4267 C35.353,53.3957 35.324,53.3737 35.283,53.3497 C35.262,53.3357 35.209,53.3137 35.185,53.3827 L35.039,53.7897 Z" id="Fill-3" fill="#FFFFFF"></path>
            <path d="M45.9135,53.7897 C45.8905,53.8497 45.9215,53.8617 45.9285,53.8717 C45.9965,53.9207 46.0655,53.9567 46.1355,53.9967 C46.5045,54.1927 46.8535,54.2497 47.2185,54.2497 C47.9615,54.2497 48.4225,53.8547 48.4225,53.2187 L48.4225,53.2067 C48.4225,52.6187 47.9015,52.4047 47.4135,52.2497 L47.3495,52.2297 C46.9815,52.1097 46.6635,52.0067 46.6635,51.7647 L46.6635,51.7517 C46.6635,51.5447 46.8495,51.3917 47.1375,51.3917 C47.4575,51.3917 47.8365,51.4977 48.0805,51.6337 C48.0805,51.6337 48.1535,51.6797 48.1795,51.6097 C48.1935,51.5717 48.3175,51.2397 48.3305,51.2037 C48.3445,51.1647 48.3195,51.1347 48.2945,51.1197 C48.0155,50.9497 47.6295,50.8337 47.2295,50.8337 L47.1565,50.8347 C46.4755,50.8347 46.0005,51.2457 46.0005,51.8337 L46.0005,51.8467 C46.0005,52.4657 46.5255,52.6677 47.0155,52.8077 L47.0945,52.8317 C47.4525,52.9417 47.7605,53.0367 47.7605,53.2877 L47.7605,53.3007 C47.7605,53.5307 47.5595,53.7017 47.2365,53.7017 C47.1115,53.7017 46.7125,53.6997 46.2805,53.4267 C46.2275,53.3957 46.1975,53.3747 46.1575,53.3497 C46.1445,53.3407 46.0815,53.3167 46.0595,53.3827 L45.9135,53.7897 Z" id="Fill-5" fill="#FFFFFF"></path>
            <path d="M53.3368,52.5436 C53.3368,52.9026 53.2698,53.1866 53.1378,53.3866 C53.0068,53.5846 52.8098,53.6816 52.5348,53.6816 C52.2588,53.6816 52.0628,53.5846 51.9338,53.3866 C51.8028,53.1866 51.7368,52.9026 51.7368,52.5436 C51.7368,52.1856 51.8028,51.9016 51.9328,51.7036 C52.0628,51.5076 52.2588,51.4126 52.5348,51.4126 C52.8098,51.4126 53.0068,51.5076 53.1378,51.7036 C53.2698,51.9016 53.3368,52.1856 53.3368,52.5436 M53.9568,51.8776 C53.8968,51.6716 53.8008,51.4896 53.6748,51.3386 C53.5488,51.1876 53.3888,51.0646 53.1988,50.9776 C53.0088,50.8886 52.7858,50.8436 52.5348,50.8436 C52.2828,50.8436 52.0588,50.8886 51.8688,50.9776 C51.6798,51.0646 51.5198,51.1876 51.3938,51.3396 C51.2668,51.4906 51.1718,51.6716 51.1108,51.8776 C51.0508,52.0826 51.0198,52.3066 51.0198,52.5436 C51.0198,52.7816 51.0508,53.0056 51.1108,53.2106 C51.1718,53.4156 51.2668,53.5966 51.3938,53.7486 C51.5198,53.9006 51.6798,54.0216 51.8698,54.1076 C52.0588,54.1936 52.2828,54.2376 52.5348,54.2376 C52.7858,54.2376 53.0088,54.1936 53.1988,54.1076 C53.3878,54.0216 53.5478,53.9006 53.6748,53.7486 C53.8008,53.5976 53.8968,53.4166 53.9568,53.2106 C54.0178,53.0046 54.0488,52.7816 54.0488,52.5436 C54.0488,52.3066 54.0178,52.0826 53.9568,51.8776" id="Fill-7" fill="#FFFFFF"></path>
            <path d="M59.0488,53.5851 C59.0288,53.5251 58.9698,53.5481 58.9698,53.5481 C58.8798,53.5831 58.7838,53.6141 58.6808,53.6301 C58.5778,53.6471 58.4638,53.6541 58.3408,53.6541 C58.0418,53.6541 57.8028,53.5651 57.6318,53.3891 C57.4618,53.2121 57.3648,52.9271 57.3658,52.5411 C57.3668,52.1901 57.4518,51.9261 57.6038,51.7251 C57.7548,51.5241 57.9858,51.4221 58.2918,51.4221 C58.5478,51.4221 58.7428,51.4521 58.9468,51.5151 C58.9468,51.5151 58.9958,51.5371 59.0188,51.4731 C59.0738,51.3221 59.1138,51.2151 59.1718,51.0491 C59.1888,51.0021 59.1478,50.9821 59.1328,50.9761 C59.0528,50.9451 58.8628,50.8931 58.7188,50.8721 C58.5858,50.8511 58.4288,50.8401 58.2548,50.8401 C57.9938,50.8401 57.7618,50.8851 57.5638,50.9741 C57.3648,51.0621 57.1968,51.1831 57.0638,51.3351 C56.9308,51.4871 56.8298,51.6681 56.7628,51.8741 C56.6948,52.0791 56.6608,52.3031 56.6608,52.5421 C56.6608,53.0561 56.7998,53.4711 57.0738,53.7751 C57.3488,54.0811 57.7598,54.2361 58.2978,54.2361 C58.6158,54.2361 58.9418,54.1711 59.1758,54.0801 C59.1758,54.0801 59.2208,54.0581 59.2008,54.0051 L59.0488,53.5851 Z" id="Fill-9" fill="#FFFFFF"></path>
            <path d="M60.1337,52.1994 C60.1637,51.9994 60.2177,51.8334 60.3037,51.7044 C60.4317,51.5084 60.6277,51.3994 60.9037,51.3994 C61.1787,51.3994 61.3607,51.5084 61.4907,51.7044 C61.5777,51.8344 61.6157,52.0064 61.6307,52.1994 L60.1337,52.1994 Z M62.2207,51.7614 C62.1687,51.5614 62.0377,51.3614 61.9527,51.2694 C61.8177,51.1234 61.6847,51.0224 61.5537,50.9654 C61.3837,50.8924 61.1777,50.8444 60.9527,50.8444 C60.6907,50.8444 60.4527,50.8874 60.2597,50.9784 C60.0667,51.0694 59.9047,51.1934 59.7767,51.3474 C59.6497,51.5014 59.5537,51.6844 59.4927,51.8924 C59.4307,52.0984 59.4007,52.3244 59.4007,52.5614 C59.4007,52.8034 59.4317,53.0294 59.4957,53.2324 C59.5597,53.4364 59.6617,53.6164 59.7997,53.7654 C59.9377,53.9154 60.1147,54.0324 60.3277,54.1154 C60.5387,54.1974 60.7957,54.2394 61.0897,54.2384 C61.6957,54.2364 62.0147,54.1014 62.1467,54.0284 C62.1697,54.0154 62.1917,53.9924 62.1647,53.9284 L62.0267,53.5434 C62.0057,53.4874 61.9477,53.5074 61.9477,53.5074 C61.7977,53.5634 61.5847,53.6634 61.0867,53.6624 C60.7607,53.6614 60.5197,53.5664 60.3687,53.4154 C60.2137,53.2624 60.1367,53.0364 60.1237,52.7184 L62.2227,52.7194 C62.2227,52.7194 62.2777,52.7194 62.2837,52.6644 C62.2857,52.6424 62.3557,52.2334 62.2207,51.7614 Z" id="Fill-11" fill="#FFFFFF"></path>
            <path d="M43.3241,52.1994 C43.3541,51.9994 43.4081,51.8334 43.4931,51.7044 C43.6221,51.5084 43.8181,51.3994 44.0941,51.3994 C44.3691,51.3994 44.5511,51.5084 44.6821,51.7044 C44.7681,51.8344 44.8061,52.0064 44.8211,52.1994 L43.3241,52.1994 Z M45.4111,51.7614 C45.3591,51.5614 45.2281,51.3614 45.1431,51.2694 C45.0081,51.1234 44.8761,51.0224 44.7441,50.9654 C44.5731,50.8924 44.3681,50.8444 44.1431,50.8444 C43.8811,50.8444 43.6431,50.8874 43.4501,50.9784 C43.2571,51.0694 43.0951,51.1934 42.9671,51.3474 C42.8401,51.5014 42.7441,51.6844 42.6821,51.8924 C42.6211,52.0984 42.5911,52.3244 42.5911,52.5614 C42.5911,52.8034 42.6221,53.0294 42.6861,53.2324 C42.7501,53.4364 42.8521,53.6164 42.9901,53.7654 C43.1281,53.9154 43.3051,54.0324 43.5171,54.1154 C43.7291,54.1974 43.9861,54.2394 44.2801,54.2384 C44.8861,54.2364 45.2051,54.1014 45.3371,54.0284 C45.3601,54.0154 45.3821,53.9924 45.3551,53.9284 L45.2171,53.5434 C45.1961,53.4874 45.1381,53.5074 45.1381,53.5074 C44.9881,53.5634 44.7751,53.6634 44.2771,53.6624 C43.9511,53.6614 43.7101,53.5664 43.5581,53.4154 C43.4041,53.2624 43.3271,53.0364 43.3141,52.7184 L45.4131,52.7194 C45.4131,52.7194 45.4681,52.7194 45.4741,52.6644 C45.4761,52.6424 45.5461,52.2334 45.4111,51.7614 Z" id="Fill-13" fill="#FFFFFF"></path>
            <path d="M38.787,53.5739 C38.705,53.5089 38.694,53.4919 38.666,53.4489 C38.624,53.3849 38.603,53.2929 38.603,53.1769 C38.603,52.9919 38.664,52.8589 38.79,52.7699 C38.79,52.7699 38.972,52.6129 39.399,52.6179 C39.7,52.6219 39.969,52.6669 39.969,52.6669 L39.969,53.6209 C39.969,53.6209 39.703,53.6779 39.402,53.6969 C38.975,53.7219 38.786,53.5739 38.786,53.5739 M39.622,52.0989 C39.537,52.0929 39.427,52.0899 39.295,52.0899 C39.115,52.0899 38.941,52.1119 38.778,52.1559 C38.614,52.1999 38.466,52.2679 38.34,52.3589 C38.212,52.4499 38.11,52.5669 38.035,52.7049 C37.961,52.8439 37.923,53.0069 37.923,53.1889 C37.923,53.3749 37.955,53.5359 38.019,53.6679 C38.083,53.8009 38.175,53.9109 38.293,53.9959 C38.41,54.0819 38.554,54.1439 38.72,54.1819 C38.885,54.2199 39.072,54.2389 39.276,54.2389 C39.492,54.2389 39.706,54.2199 39.914,54.1849 C40.12,54.1499 40.372,54.0989 40.442,54.0829 C40.512,54.0669 40.589,54.0459 40.589,54.0459 C40.641,54.0319 40.637,53.9769 40.637,53.9769 L40.636,52.0569 C40.636,51.6359 40.524,51.3239 40.303,51.1309 C40.082,50.9379 39.758,50.8409 39.339,50.8409 C39.181,50.8409 38.928,50.8619 38.776,50.8919 C38.776,50.8919 38.318,50.9809 38.129,51.1289 C38.129,51.1289 38.088,51.1549 38.11,51.2129 L38.259,51.6119 C38.277,51.6629 38.328,51.6459 38.328,51.6459 C38.328,51.6459 38.344,51.6389 38.363,51.6279 C38.766,51.4089 39.277,51.4149 39.277,51.4149 C39.504,51.4149 39.678,51.4619 39.796,51.5509 C39.91,51.6389 39.968,51.7709 39.968,52.0509 L39.968,52.1399 C39.788,52.1139 39.622,52.0989 39.622,52.0989" id="Fill-15" fill="#FFFFFF"></path>
            <path d="M56.5512,51.0177 C56.5672,50.9707 56.5332,50.9477 56.5202,50.9417 C56.4842,50.9287 56.3052,50.8907 56.1682,50.8817 C55.9042,50.8657 55.7582,50.9097 55.6272,50.9687 C55.4962,51.0277 55.3522,51.1227 55.2722,51.2307 L55.2722,50.9747 C55.2722,50.9397 55.2472,50.9117 55.2122,50.9117 L54.6742,50.9117 C54.6382,50.9117 54.6142,50.9397 54.6142,50.9747 L54.6142,54.1057 C54.6142,54.1417 54.6412,54.1687 54.6772,54.1687 L55.2292,54.1687 C55.2642,54.1687 55.2922,54.1417 55.2922,54.1057 L55.2922,52.5417 C55.2922,52.3317 55.3152,52.1217 55.3622,51.9907 C55.4072,51.8607 55.4682,51.7567 55.5452,51.6827 C55.6222,51.6077 55.7092,51.5557 55.8052,51.5267 C55.9032,51.4967 56.0102,51.4867 56.0862,51.4867 C56.1962,51.4867 56.3162,51.5157 56.3162,51.5157 C56.3572,51.5187 56.3802,51.4947 56.3942,51.4577 C56.4292,51.3627 56.5322,51.0747 56.5512,51.0177" id="Fill-17" fill="#FFFFFF"></path>
            <path d="M51.3754,49.5666 C51.3084,49.5456 51.2474,49.5316 51.1674,49.5176 C51.0864,49.5026 50.9914,49.4956 50.8824,49.4956 C50.5024,49.4956 50.2044,49.6026 49.9934,49.8146 C49.7854,50.0246 49.6434,50.3456 49.5714,50.7666 L49.5464,50.9086 L49.0694,50.9086 C49.0694,50.9086 49.0114,50.9056 48.9994,50.9696 L48.9214,51.4056 C48.9154,51.4476 48.9334,51.4736 48.9894,51.4736 L49.4534,51.4736 L48.9824,54.1006 C48.9454,54.3116 48.9034,54.4856 48.8564,54.6176 C48.8114,54.7486 48.7664,54.8456 48.7104,54.9166 C48.6564,54.9846 48.6064,55.0356 48.5184,55.0646 C48.4464,55.0886 48.3624,55.0996 48.2714,55.0996 C48.2214,55.0996 48.1534,55.0916 48.1034,55.0816 C48.0534,55.0716 48.0274,55.0606 47.9894,55.0456 C47.9894,55.0456 47.9354,55.0246 47.9144,55.0786 C47.8964,55.1236 47.7734,55.4636 47.7584,55.5056 C47.7434,55.5466 47.7644,55.5796 47.7914,55.5886 C47.8524,55.6106 47.8984,55.6256 47.9824,55.6446 C48.0994,55.6726 48.1984,55.6736 48.2904,55.6736 C48.4834,55.6736 48.6594,55.6476 48.8054,55.5946 C48.9524,55.5416 49.0804,55.4486 49.1934,55.3236 C49.3144,55.1886 49.3924,55.0466 49.4654,54.8546 C49.5384,54.6626 49.6004,54.4256 49.6504,54.1496 L50.1234,51.4736 L50.8144,51.4736 C50.8144,51.4736 50.8734,51.4756 50.8844,51.4126 L50.9624,50.9756 C50.9684,50.9346 50.9504,50.9086 50.8944,50.9086 L50.2234,50.9086 C50.2274,50.8936 50.2574,50.6566 50.3344,50.4356 C50.3674,50.3396 50.4294,50.2636 50.4814,50.2116 C50.5324,50.1596 50.5924,50.1226 50.6574,50.1016 C50.7244,50.0806 50.7994,50.0696 50.8824,50.0696 C50.9454,50.0696 51.0074,50.0766 51.0554,50.0866 C51.1204,50.1006 51.1454,50.1076 51.1624,50.1126 C51.2304,50.1336 51.2394,50.1136 51.2534,50.0806 L51.4134,49.6396 C51.4304,49.5926 51.3904,49.5726 51.3754,49.5666" id="Fill-19" fill="#FFFFFF"></path>
            <path d="M41.9985,54.1061 C41.9985,54.1411 41.9735,54.1691 41.9385,54.1691 L41.3815,54.1691 C41.3465,54.1691 41.3215,54.1411 41.3215,54.1061 L41.3215,49.6261 C41.3215,49.5911 41.3465,49.5631 41.3815,49.5631 L41.9385,49.5631 C41.9735,49.5631 41.9985,49.5911 41.9985,49.6261 L41.9985,54.1061 Z" id="Fill-21" fill="#FFFFFF"></path>
            <path d="M25.976,53.8595 C26.318,52.0705 27.133,50.4075 28.323,49.0515 C28.267,48.5965 28.238,48.1345 28.238,47.6695 C28.238,41.5905 33.187,36.6455 39.271,36.6455 C41.41,36.6455 43.447,37.2475 45.188,38.3565 C46.511,37.7545 47.957,37.4385 49.455,37.4385 C52.087,37.4385 54.588,38.4525 56.485,40.2025 C57.049,40.1205 57.621,40.0795 58.199,40.0795 C61.017,40.0795 63.604,41.0795 65.636,42.7415 C65.869,41.7165 66.004,40.6545 66.004,39.5585 C66.004,33.8475 62.655,28.9195 57.814,26.6275 C58.284,25.4315 58.545,24.1305 58.545,22.7665 C58.545,16.9285 53.811,12.1945 47.973,12.1945 C46.879,12.1945 45.824,12.3605 44.832,12.6695 C42.465,6.4435 36.445,2.0175 29.389,2.0175 C20.265,2.0175 12.869,9.4135 12.869,18.5375 C12.869,19.2475 12.918,19.9445 13.005,20.6315 C6.57,23.1165 2.004,29.3575 2.004,36.6695 C2.004,46.1255 9.64,53.7955 19.081,53.8565 L19.081,53.8595 L25.976,53.8595 Z" id="Fill-23" fill="#4A4C54"></path>
            <g id="Group-27" transform="translate(0.000000, 33.009900)">
                <mask id="mask-4" fill="white">
                    <use xlink:href="#path-3"></use>
                </mask>
                <g id="Clip-26"></g>
                <path d="M1.0102,0.9951 C1.0102,0.9971 1.0082,1.0001 1.0052,1.0001 C1.0022,1.0001 1.0002,0.9971 1.0002,0.9951 C1.0002,0.9921 1.0022,0.9901 1.0052,0.9901 C1.0082,0.9901 1.0102,0.9921 1.0102,0.9951" id="Fill-25" fill="#4A4C54" mask="url(#mask-4)"></path>
            </g>
            <g id="Group-30" transform="translate(66.000000, 33.009900)">
                <mask id="mask-6" fill="white">
                    <use xlink:href="#path-5"></use>
                </mask>
                <g id="Clip-29"></g>
                <path d="M1.0097,1 C1.0097,1.003 1.0077,1.005 1.0047,1.005 C1.0027,1.005 0.9997,1.003 0.9997,1 C0.9997,0.997 1.0027,0.995 1.0047,0.995 C1.0077,0.995 1.0097,0.997 1.0097,1" id="Fill-28" fill="#4A4C54" mask="url(#mask-6)"></path>
            </g>
            <g id="Group-33" transform="translate(33.000000, 66.009900)">
                <mask id="mask-8" fill="white">
                    <use xlink:href="#path-7"></use>
                </mask>
                <g id="Clip-32"></g>
                <path d="M0.8979,0.9951 C0.8979,0.9971 0.8959,1.0001 0.8929,1.0001 C0.8899,1.0001 0.8879,0.9971 0.8879,0.9951 C0.8879,0.9921 0.8899,0.9901 0.8929,0.9901 C0.8959,0.9901 0.8979,0.9921 0.8979,0.9951" id="Fill-31" fill="#4A4C54" mask="url(#mask-8)"></path>
            </g>
            <g id="Group-36" transform="translate(33.000000, 0.009900)">
                <mask id="mask-10" fill="white">
                    <use xlink:href="#path-9"></use>
                </mask>
                <g id="Clip-35"></g>
                <path d="M0.8925,0.9951 C0.8925,0.9981 0.8905,1.0001 0.8875,1.0001 C0.8845,1.0001 0.8825,0.9981 0.8825,0.9951 C0.8825,0.9921 0.8845,0.9901 0.8875,0.9901 C0.8905,0.9901 0.8925,0.9921 0.8925,0.9951" id="Fill-34" fill="#4A4C54" mask="url(#mask-10)"></path>
            </g>
        </g>
        <g id="Group-17" transform="translate(456.000000, 241.000000)">
            <path d="M40.3222,53.8932 L40.3222,45.8612 L40.3222,43.0972 L42.9082,42.1202 L56.8582,36.8492 L58.1802,36.3492 L59.5242,36.7912 L65.9812,38.9202 C65.7292,33.4972 62.4652,28.8622 57.8162,26.6612 C58.2862,25.4652 58.5472,24.1642 58.5472,22.8002 C58.5472,16.9622 53.8142,12.2282 47.9752,12.2282 C46.8812,12.2282 45.8262,12.3952 44.8342,12.7032 C42.4672,6.4772 36.4472,2.0512 29.3902,2.0512 C20.2672,2.0512 12.8702,9.4472 12.8702,18.5712 C12.8702,19.2812 12.9202,19.9782 13.0072,20.6652 C6.5722,23.1502 2.0062,29.3912 2.0062,36.7032 C2.0062,46.1592 9.6412,53.8302 19.0832,53.8912 L19.0832,53.8932 L40.3222,53.8932 Z" id="Fill-1" fill="#4A4C54"></path>
            <polygon id="Fill-3" fill="#E24126" points="66.0043 43.1286 66.0043 63.5186 58.2743 65.9586 44.3243 61.0786 58.3543 62.8686 58.3543 45.0086 49.3143 47.0486 49.3143 59.0386 44.3243 61.0786 44.3243 45.8486 58.2743 40.5786"></polygon>
            <g id="Group-7" transform="translate(0.000000, 33.009900)">
                <mask id="mask-12" fill="white">
                    <use xlink:href="#path-11"></use>
                </mask>
                <g id="Clip-6"></g>
                <path d="M1.0101,0.9951 C1.0101,0.9971 1.0081,1.0001 1.0051,1.0001 C1.0021,1.0001 1.0001,0.9971 1.0001,0.9951 C1.0001,0.9921 1.0021,0.9901 1.0051,0.9901 C1.0081,0.9901 1.0101,0.9921 1.0101,0.9951" id="Fill-5" fill="#4A4C54" mask="url(#mask-12)"></path>
            </g>
            <g id="Group-10" transform="translate(66.000000, 33.009900)">
                <mask id="mask-14" fill="white">
                    <use xlink:href="#path-13"></use>
                </mask>
                <g id="Clip-9"></g>
                <path d="M1.0101,1 C1.0101,1.003 1.0081,1.005 1.0051,1.005 C1.0021,1.005 1.0001,1.003 1.0001,1 C1.0001,0.997 1.0021,0.995 1.0051,0.995 C1.0081,0.995 1.0101,0.997 1.0101,1" id="Fill-8" fill="#4A4C54" mask="url(#mask-14)"></path>
            </g>
            <g id="Group-13" transform="translate(33.000000, 66.009900)">
                <mask id="mask-16" fill="white">
                    <use xlink:href="#path-15"></use>
                </mask>
                <g id="Clip-12"></g>
                <path d="M0.8978,0.9951 C0.8978,0.9971 0.8958,1.0001 0.8928,1.0001 C0.8898,1.0001 0.8878,0.9971 0.8878,0.9951 C0.8878,0.9921 0.8898,0.9901 0.8928,0.9901 C0.8958,0.9901 0.8978,0.9921 0.8978,0.9951" id="Fill-11" fill="#4A4C54" mask="url(#mask-16)"></path>
            </g>
            <g id="Group-16" transform="translate(33.000000, 0.009900)">
                <mask id="mask-18" fill="white">
                    <use xlink:href="#path-17"></use>
                </mask>
                <g id="Clip-15"></g>
                <path d="M0.8925,0.9951 C0.8925,0.9981 0.8905,1.0001 0.8875,1.0001 C0.8855,1.0001 0.8825,0.9981 0.8825,0.9951 C0.8825,0.9921 0.8855,0.9901 0.8875,0.9901 C0.8905,0.9901 0.8925,0.9921 0.8925,0.9951" id="Fill-14" fill="#4A4C54" mask="url(#mask-18)"></path>
            </g>
        </g>
        <g id="Group-25" transform="translate(381.000000, 270.000000)">
            <path d="M49.6702,41.2794 C46.5752,42.3394 43.9402,44.6544 42.4792,47.5794 C41.9702,48.5874 41.5982,49.6634 41.3752,50.7704 C40.8142,53.5274 41.2052,56.4674 42.4772,58.9784 C43.3032,60.6184 44.4892,62.0754 45.9262,63.2174 C47.2822,64.2994 48.8632,65.0984 50.5392,65.5444 C52.6542,66.1114 54.9052,66.0984 57.0342,65.6134 C58.9582,65.1714 60.7782,64.2514 62.2312,62.9094 C63.7672,61.4984 64.8632,59.6384 65.4432,57.6394 C66.0762,55.4594 66.1632,53.1324 65.7662,50.9004 C61.7842,50.8984 57.8022,50.8994 53.8202,50.8994 C53.8202,52.5514 53.8182,54.2024 53.8212,55.8544 C56.1272,55.8534 58.4332,55.8534 60.7392,55.8544 C60.4722,57.4364 59.5312,58.8834 58.1972,59.7754 C57.3592,60.3394 56.3962,60.7044 55.4022,60.8794 C54.4022,61.0494 53.3702,61.0714 52.3732,60.8694 C51.3582,60.6674 50.3912,60.2444 49.5462,59.6494 C48.1962,58.7004 47.1662,57.3124 46.6372,55.7514 C46.0962,54.1624 46.0922,52.3944 46.6392,50.8074 C47.0192,49.6884 47.6512,48.6554 48.4822,47.8144 C49.5062,46.7654 50.8382,46.0154 52.2732,45.7084 C53.5022,45.4464 54.7972,45.4964 56.0002,45.8604 C57.0232,46.1704 57.9652,46.7314 58.7372,47.4684 C59.5182,46.6924 60.2942,45.9114 61.0732,45.1344 C61.4822,44.7164 61.9112,44.3154 62.3072,43.8854 C61.1242,42.7914 59.7372,41.9104 58.2222,41.3544 C55.4932,40.3504 52.4172,40.3294 49.6702,41.2794" id="Fill-1" fill="#FFFFFF"></path>
            <path d="M49.6702,41.2794 C52.4172,40.3294 55.4932,40.3504 58.2222,41.3544 C59.7372,41.9104 61.1242,42.7914 62.3072,43.8854 C61.9112,44.3154 61.4822,44.7164 61.0732,45.1344 C60.2942,45.9114 59.5182,46.6924 58.7372,47.4684 C57.9652,46.7314 57.0232,46.1704 56.0002,45.8604 C54.7972,45.4964 53.5022,45.4464 52.2732,45.7084 C50.8382,46.0154 49.5062,46.7654 48.4822,47.8144 C47.6512,48.6554 47.0192,49.6884 46.6392,50.8074 C45.2522,49.7314 43.8662,48.6544 42.4792,47.5794 C43.9402,44.6544 46.5752,42.3394 49.6702,41.2794" id="Fill-3" fill="#E74535"></path>
            <path d="M41.3752,50.7702 C41.5982,49.6632 41.9702,48.5872 42.4792,47.5792 C43.8662,48.6552 45.2522,49.7312 46.6392,50.8072 C46.0922,52.3952 46.0962,54.1622 46.6372,55.7512 C45.2502,56.8272 43.8652,57.9042 42.4772,58.9782 C41.2052,56.4672 40.8142,53.5272 41.3752,50.7702" id="Fill-5" fill="#F4B719"></path>
            <path d="M53.8201,50.8996 C57.8021,50.8996 61.7841,50.8986 65.7661,50.8996 C66.1631,53.1316 66.0761,55.4596 65.4431,57.6396 C64.8631,59.6386 63.7671,61.4986 62.2311,62.9096 C60.8881,61.8636 59.5401,60.8226 58.1971,59.7746 C59.5311,58.8836 60.4721,57.4366 60.7391,55.8546 C58.4331,55.8536 56.1271,55.8536 53.8211,55.8546 C53.8181,54.2026 53.8201,52.5516 53.8201,50.8996" id="Fill-7" fill="#537EBE"></path>
            <path d="M42.4773,58.9787 C43.8653,57.9047 45.2503,56.8267 46.6373,55.7507 C47.1653,57.3127 48.1963,58.7007 49.5463,59.6487 C50.3913,60.2447 51.3583,60.6667 52.3733,60.8697 C53.3703,61.0717 54.4023,61.0497 55.4023,60.8787 C56.3953,60.7047 57.3593,60.3387 58.1973,59.7747 C59.5403,60.8227 60.8883,61.8637 62.2313,62.9097 C60.7783,64.2517 58.9573,65.1707 57.0343,65.6137 C54.9053,66.0987 52.6543,66.1107 50.5393,65.5437 C48.8633,65.0987 47.2823,64.2997 45.9263,63.2177 C44.4893,62.0757 43.3033,60.6187 42.4773,58.9787" id="Fill-9" fill="#32A54E"></path>
            <path d="M37.0701,53.8786 C37.0231,52.5756 37.1201,51.2656 37.3821,49.9796 C37.6761,48.5186 38.1651,47.1046 38.8271,45.7926 C40.7621,41.9186 44.2161,38.8946 48.2891,37.4996 C50.0461,36.8916 51.8911,36.5836 53.7731,36.5836 C55.7601,36.5836 57.6971,36.9256 59.5281,37.5996 C61.5101,38.3276 63.3351,39.4546 64.9511,40.9496 L65.8201,41.7546 C65.9291,41.0426 66.0041,40.3196 66.0041,39.5776 C66.0041,33.8656 62.6541,28.9386 57.8141,26.6466 C58.2841,25.4496 58.5451,24.1486 58.5451,22.7856 C58.5451,16.9466 53.8121,12.2136 47.9731,12.2136 C46.8791,12.2136 45.8241,12.3796 44.8321,12.6886 C42.4651,6.4626 36.4451,2.0366 29.3881,2.0366 C20.2651,2.0366 12.8681,9.4326 12.8681,18.5566 C12.8681,19.2666 12.9181,19.9636 13.0051,20.6496 C6.5701,23.1356 2.0041,29.3766 2.0041,36.6876 C2.0041,46.1446 9.6391,53.8146 19.0811,53.8756 L19.0811,53.8786 L37.0701,53.8786 Z" id="Fill-11" fill="#4A4C54"></path>
            <g id="Group-15" transform="translate(0.000000, 33.009900)">
                <mask id="mask-20" fill="white">
                    <use xlink:href="#path-19"></use>
                </mask>
                <g id="Clip-14"></g>
                <path d="M1.01,0.9951 C1.01,0.9971 1.008,1.0001 1.005,1.0001 C1.002,1.0001 1,0.9971 1,0.9951 C1,0.9921 1.002,0.9901 1.005,0.9901 C1.008,0.9901 1.01,0.9921 1.01,0.9951" id="Fill-13" fill="#4A4C54" mask="url(#mask-20)"></path>
            </g>
            <g id="Group-18" transform="translate(66.000000, 33.009900)">
                <mask id="mask-22" fill="white">
                    <use xlink:href="#path-21"></use>
                </mask>
                <g id="Clip-17"></g>
                <path d="M1.01,1 C1.01,1.003 1.008,1.005 1.005,1.005 C1.002,1.005 1,1.003 1,1 C1,0.997 1.002,0.995 1.005,0.995 C1.008,0.995 1.01,0.997 1.01,1" id="Fill-16" fill="#4A4C54" mask="url(#mask-22)"></path>
            </g>
            <g id="Group-21" transform="translate(33.000000, 66.009900)">
                <mask id="mask-24" fill="white">
                    <use xlink:href="#path-23"></use>
                </mask>
                <g id="Clip-20"></g>
                <path d="M0.8977,0.9951 C0.8977,0.9971 0.8957,1.0001 0.8927,1.0001 C0.8897,1.0001 0.8877,0.9971 0.8877,0.9951 C0.8877,0.9921 0.8897,0.9901 0.8927,0.9901 C0.8957,0.9901 0.8977,0.9921 0.8977,0.9951" id="Fill-19" fill="#4A4C54" mask="url(#mask-24)"></path>
            </g>
            <g id="Group-24" transform="translate(33.000000, 0.009900)">
                <mask id="mask-26" fill="white">
                    <use xlink:href="#path-25"></use>
                </mask>
                <g id="Clip-23"></g>
                <path d="M0.8928,0.9951 C0.8928,0.9981 0.8908,1.0001 0.8878,1.0001 C0.8848,1.0001 0.8828,0.9981 0.8828,0.9951 C0.8828,0.9921 0.8848,0.9901 0.8878,0.9901 C0.8908,0.9901 0.8928,0.9921 0.8928,0.9951" id="Fill-22" fill="#4A4C54" mask="url(#mask-26)"></path>
            </g>
        </g>
        <path d="M424.576,223.84 C422.8,223.84 421.344,223.248 420,222.048 L420.784,221.12 C421.952,222.176 423.072,222.704 424.624,222.704 C426.128,222.704 427.12,221.904 427.12,220.8 L427.12,220.768 C427.12,219.728 426.56,219.136 424.208,218.64 C421.632,218.08 420.448,217.248 420.448,215.408 L420.448,215.376 C420.448,213.616 422,212.32 424.128,212.32 C425.76,212.32 426.928,212.784 428.064,213.696 L427.328,214.672 C426.288,213.824 425.248,213.456 424.096,213.456 C422.64,213.456 421.712,214.256 421.712,215.264 L421.712,215.296 C421.712,216.352 422.288,216.944 424.752,217.472 C427.248,218.016 428.4,218.928 428.4,220.64 L428.4,220.672 C428.4,222.592 426.8,223.84 424.576,223.84 Z M433.232,223.856 C431.696,223.856 430.144,222.976 430.144,221.28 L430.144,221.248 C430.144,219.504 431.584,218.576 433.68,218.576 C434.736,218.576 435.488,218.72 436.224,218.928 L436.224,218.64 C436.224,217.152 435.312,216.384 433.76,216.384 C432.784,216.384 432.016,216.64 431.248,216.992 L430.88,215.984 C431.792,215.568 432.688,215.296 433.888,215.296 C435.056,215.296 435.952,215.6 436.56,216.208 C437.12,216.768 437.408,217.568 437.408,218.624 L437.408,223.68 L436.224,223.68 L436.224,222.432 C435.648,223.184 434.688,223.856 433.232,223.856 Z M433.472,222.88 C434.992,222.88 436.24,221.952 436.24,220.64 L436.24,219.84 C435.632,219.664 434.816,219.488 433.808,219.488 C432.256,219.488 431.392,220.16 431.392,221.2 L431.392,221.232 C431.392,222.272 432.352,222.88 433.472,222.88 Z M442.496,223.856 C440.96,223.856 439.408,222.976 439.408,221.28 L439.408,221.248 C439.408,219.504 440.848,218.576 442.944,218.576 C444,218.576 444.752,218.72 445.488,218.928 L445.488,218.64 C445.488,217.152 444.576,216.384 443.024,216.384 C442.048,216.384 441.28,216.64 440.512,216.992 L440.144,215.984 C441.056,215.568 441.952,215.296 443.152,215.296 C444.32,215.296 445.216,215.6 445.824,216.208 C446.384,216.768 446.672,217.568 446.672,218.624 L446.672,223.68 L445.488,223.68 L445.488,222.432 C444.912,223.184 443.952,223.856 442.496,223.856 Z M442.736,222.88 C444.256,222.88 445.504,221.952 445.504,220.64 L445.504,219.84 C444.896,219.664 444.08,219.488 443.072,219.488 C441.52,219.488 440.656,220.16 440.656,221.2 L440.656,221.232 C440.656,222.272 441.616,222.88 442.736,222.88 Z M453.344,223.84 C451.568,223.84 450.112,223.248 448.768,222.048 L449.552,221.12 C450.72,222.176 451.84,222.704 453.392,222.704 C454.896,222.704 455.888,221.904 455.888,220.8 L455.888,220.768 C455.888,219.728 455.328,219.136 452.976,218.64 C450.4,218.08 449.216,217.248 449.216,215.408 L449.216,215.376 C449.216,213.616 450.768,212.32 452.896,212.32 C454.528,212.32 455.696,212.784 456.832,213.696 L456.096,214.672 C455.056,213.824 454.016,213.456 452.864,213.456 C451.408,213.456 450.48,214.256 450.48,215.264 L450.48,215.296 C450.48,216.352 451.056,216.944 453.52,217.472 C456.016,218.016 457.168,218.928 457.168,220.64 L457.168,220.672 C457.168,222.592 455.568,223.84 453.344,223.84 Z M463.584,223.68 L468.688,212.4 L469.872,212.4 L474.976,223.68 L473.616,223.68 L472.304,220.72 L466.208,220.72 L464.88,223.68 L463.584,223.68 Z M466.704,219.568 L471.808,219.568 L469.264,213.872 L466.704,219.568 Z M476.976,226.24 L476.976,215.408 L478.208,215.408 L478.208,217.072 C478.88,216.08 479.856,215.232 481.376,215.232 C483.36,215.232 485.328,216.8 485.328,219.52 L485.328,219.552 C485.328,222.256 483.376,223.856 481.376,223.856 C479.84,223.856 478.848,223.024 478.208,222.096 L478.208,226.24 L476.976,226.24 Z M481.152,222.752 C482.752,222.752 484.064,221.568 484.064,219.568 L484.064,219.536 C484.064,217.584 482.72,216.336 481.152,216.336 C479.616,216.336 478.16,217.632 478.16,219.52 L478.16,219.552 C478.16,221.472 479.616,222.752 481.152,222.752 Z M487.6,226.24 L487.6,215.408 L488.832,215.408 L488.832,217.072 C489.504,216.08 490.48,215.232 492,215.232 C493.984,215.232 495.952,216.8 495.952,219.52 L495.952,219.552 C495.952,222.256 494,223.856 492,223.856 C490.464,223.856 489.472,223.024 488.832,222.096 L488.832,226.24 L487.6,226.24 Z M491.776,222.752 C493.376,222.752 494.688,221.568 494.688,219.568 L494.688,219.536 C494.688,217.584 493.344,216.336 491.776,216.336 C490.24,216.336 488.784,217.632 488.784,219.52 L488.784,219.552 C488.784,221.472 490.24,222.752 491.776,222.752 Z M498.336,223.68 L498.336,212 L499.568,212 L499.568,223.68 L498.336,223.68 Z M502.464,213.6 L502.464,212.24 L503.872,212.24 L503.872,213.6 L502.464,213.6 Z M502.544,223.68 L502.544,215.408 L503.776,215.408 L503.776,223.68 L502.544,223.68 Z M510.368,223.872 C507.952,223.872 506.128,221.904 506.128,219.584 L506.128,219.552 C506.128,217.216 507.952,215.232 510.368,215.232 C511.936,215.232 512.912,215.888 513.68,216.704 L512.864,217.568 C512.208,216.88 511.472,216.32 510.352,216.32 C508.672,216.32 507.392,217.744 507.392,219.52 L507.392,219.552 C507.392,221.344 508.704,222.768 510.432,222.768 C511.488,222.768 512.304,222.24 512.96,221.536 L513.744,222.272 C512.912,223.2 511.92,223.872 510.368,223.872 Z M518.24,223.856 C516.704,223.856 515.152,222.976 515.152,221.28 L515.152,221.248 C515.152,219.504 516.592,218.576 518.688,218.576 C519.744,218.576 520.496,218.72 521.232,218.928 L521.232,218.64 C521.232,217.152 520.32,216.384 518.768,216.384 C517.792,216.384 517.024,216.64 516.256,216.992 L515.888,215.984 C516.8,215.568 517.696,215.296 518.896,215.296 C520.064,215.296 520.96,215.6 521.568,216.208 C522.128,216.768 522.416,217.568 522.416,218.624 L522.416,223.68 L521.232,223.68 L521.232,222.432 C520.656,223.184 519.696,223.856 518.24,223.856 Z M518.48,222.88 C520,222.88 521.248,221.952 521.248,220.64 L521.248,219.84 C520.64,219.664 519.824,219.488 518.816,219.488 C517.264,219.488 516.4,220.16 516.4,221.2 L516.4,221.232 C516.4,222.272 517.36,222.88 518.48,222.88 Z M527.728,223.824 C526.4,223.824 525.392,223.168 525.392,221.488 L525.392,216.496 L524.24,216.496 L524.24,215.408 L525.392,215.408 L525.392,212.912 L526.624,212.912 L526.624,215.408 L529.248,215.408 L529.248,216.496 L526.624,216.496 L526.624,221.328 C526.624,222.336 527.184,222.704 528.016,222.704 C528.432,222.704 528.784,222.624 529.216,222.416 L529.216,223.472 C528.784,223.696 528.32,223.824 527.728,223.824 Z M531.456,213.6 L531.456,212.24 L532.864,212.24 L532.864,213.6 L531.456,213.6 Z M531.536,223.68 L531.536,215.408 L532.768,215.408 L532.768,223.68 L531.536,223.68 Z M539.408,223.872 C536.928,223.872 535.12,221.92 535.12,219.584 L535.12,219.552 C535.12,217.216 536.944,215.232 539.44,215.232 C541.92,215.232 543.744,217.184 543.744,219.52 L543.744,219.552 C543.744,221.888 541.904,223.872 539.408,223.872 Z M539.44,222.768 C541.232,222.768 542.48,221.328 542.48,219.584 L542.48,219.552 C542.48,217.776 541.152,216.32 539.408,216.32 C537.616,216.32 536.384,217.776 536.384,219.52 L536.384,219.552 C536.384,221.328 537.696,222.768 539.44,222.768 Z M545.968,223.68 L545.968,215.408 L547.2,215.408 L547.2,216.848 C547.744,215.952 548.608,215.232 550.032,215.232 C552.032,215.232 553.2,216.576 553.2,218.544 L553.2,223.68 L551.968,223.68 L551.968,218.848 C551.968,217.312 551.136,216.352 549.68,216.352 C548.256,216.352 547.2,217.392 547.2,218.944 L547.2,223.68 L545.968,223.68 Z M558.56,223.84 C557.376,223.84 556.064,223.376 555.136,222.624 L555.76,221.744 C556.656,222.416 557.648,222.8 558.624,222.8 C559.616,222.8 560.336,222.288 560.336,221.488 L560.336,221.456 C560.336,220.624 559.36,220.304 558.272,220 C556.976,219.632 555.536,219.184 555.536,217.664 L555.536,217.632 C555.536,216.208 556.72,215.264 558.352,215.264 C559.36,215.264 560.48,215.616 561.328,216.176 L560.768,217.104 C560,216.608 559.12,216.304 558.32,216.304 C557.344,216.304 556.72,216.816 556.72,217.504 L556.72,217.536 C556.72,218.32 557.744,218.624 558.848,218.96 C560.128,219.344 561.504,219.84 561.504,221.328 L561.504,221.36 C561.504,222.928 560.208,223.84 558.56,223.84 Z" id="SaaS-Applications" fill="#000000"></path>
        <path d="M428.988,371.16 C427.292,371.16 425.58,370.568 424.236,369.368 L425.692,367.624 C426.7,368.456 427.756,368.984 429.036,368.984 C430.044,368.984 430.652,368.584 430.652,367.928 L430.652,367.896 C430.652,367.272 430.268,366.952 428.396,366.472 C426.14,365.896 424.684,365.272 424.684,363.048 L424.684,363.016 C424.684,360.984 426.316,359.64 428.604,359.64 C430.236,359.64 431.628,360.152 432.764,361.064 L431.484,362.92 C430.492,362.232 429.516,361.816 428.572,361.816 C427.628,361.816 427.132,362.248 427.132,362.792 L427.132,362.824 C427.132,363.56 427.612,363.8 429.548,364.296 C431.82,364.888 433.1,365.704 433.1,367.656 L433.1,367.688 C433.1,369.912 431.404,371.16 428.988,371.16 Z M439.052,371.192 C436.476,371.192 434.572,369.384 434.572,366.76 L434.572,366.728 C434.572,364.28 436.316,362.264 438.812,362.264 C441.676,362.264 442.988,364.488 442.988,366.92 C442.988,367.112 442.972,367.336 442.956,367.56 L436.988,367.56 C437.228,368.664 437.996,369.24 439.084,369.24 C439.9,369.24 440.492,368.984 441.164,368.36 L442.556,369.592 C441.756,370.584 440.604,371.192 439.052,371.192 Z M436.956,366.04 L440.62,366.04 C440.476,364.952 439.836,364.216 438.812,364.216 C437.804,364.216 437.148,364.936 436.956,366.04 Z M444.796,371 L444.796,362.424 L447.228,362.424 L447.228,364.152 C447.724,362.968 448.524,362.2 449.964,362.264 L449.964,364.808 L449.836,364.808 C448.22,364.808 447.228,365.784 447.228,367.832 L447.228,371 L444.796,371 Z M454.092,371.064 L450.716,362.424 L453.292,362.424 L455.212,368.168 L457.148,362.424 L459.676,362.424 L456.3,371.064 L454.092,371.064 Z M461.132,361.48 L461.132,359.32 L463.692,359.32 L463.692,361.48 L461.132,361.48 Z M461.196,371 L461.196,362.424 L463.628,362.424 L463.628,371 L461.196,371 Z M469.964,371.192 C467.388,371.192 465.5,369.208 465.5,366.76 L465.5,366.728 C465.5,364.28 467.372,362.264 469.996,362.264 C471.612,362.264 472.62,362.808 473.42,363.704 L471.932,365.304 C471.388,364.728 470.844,364.36 469.98,364.36 C468.764,364.36 467.9,365.432 467.9,366.696 L467.9,366.728 C467.9,368.04 468.748,369.096 470.076,369.096 C470.892,369.096 471.452,368.744 472.044,368.184 L473.468,369.624 C472.636,370.536 471.676,371.192 469.964,371.192 Z M478.876,371.192 C476.3,371.192 474.396,369.384 474.396,366.76 L474.396,366.728 C474.396,364.28 476.14,362.264 478.636,362.264 C481.5,362.264 482.812,364.488 482.812,366.92 C482.812,367.112 482.796,367.336 482.78,367.56 L476.812,367.56 C477.052,368.664 477.82,369.24 478.908,369.24 C479.724,369.24 480.316,368.984 480.988,368.36 L482.38,369.592 C481.58,370.584 480.428,371.192 478.876,371.192 Z M476.78,366.04 L480.444,366.04 C480.3,364.952 479.66,364.216 478.636,364.216 C477.628,364.216 476.972,364.936 476.78,366.04 Z M489.676,371 L489.676,359.8 L494.252,359.8 C496.924,359.8 498.54,361.384 498.54,363.672 L498.54,363.704 C498.54,366.296 496.524,367.64 494.012,367.64 L492.14,367.64 L492.14,371 L489.676,371 Z M492.14,365.448 L494.092,365.448 C495.324,365.448 496.044,364.712 496.044,363.752 L496.044,363.72 C496.044,362.616 495.276,362.024 494.044,362.024 L492.14,362.024 L492.14,365.448 Z M500.108,371 L500.108,362.424 L502.54,362.424 L502.54,364.152 C503.036,362.968 503.836,362.2 505.276,362.264 L505.276,364.808 L505.148,364.808 C503.532,364.808 502.54,365.784 502.54,367.832 L502.54,371 L500.108,371 Z M510.764,371.192 C508.108,371.192 506.14,369.224 506.14,366.76 L506.14,366.728 C506.14,364.264 508.124,362.264 510.796,362.264 C513.452,362.264 515.42,364.232 515.42,366.696 L515.42,366.728 C515.42,369.192 513.436,371.192 510.764,371.192 Z M510.796,369.096 C512.188,369.096 513.02,368.024 513.02,366.76 L513.02,366.728 C513.02,365.464 512.108,364.36 510.764,364.36 C509.372,364.36 508.54,365.432 508.54,366.696 L508.54,366.728 C508.54,367.992 509.452,369.096 510.796,369.096 Z M519.308,371.064 L515.932,362.424 L518.508,362.424 L520.428,368.168 L522.364,362.424 L524.892,362.424 L521.516,371.064 L519.308,371.064 Z M526.348,361.48 L526.348,359.32 L528.908,359.32 L528.908,361.48 L526.348,361.48 Z M526.412,371 L526.412,362.424 L528.844,362.424 L528.844,371 L526.412,371 Z M534.652,371.16 C532.652,371.16 530.748,369.592 530.748,366.728 L530.748,366.696 C530.748,363.832 532.62,362.264 534.652,362.264 C535.948,362.264 536.748,362.856 537.324,363.544 L537.324,359.32 L539.756,359.32 L539.756,371 L537.324,371 L537.324,369.768 C536.732,370.568 535.916,371.16 534.652,371.16 Z M535.276,369.096 C536.412,369.096 537.356,368.152 537.356,366.728 L537.356,366.696 C537.356,365.272 536.412,364.328 535.276,364.328 C534.14,364.328 533.18,365.256 533.18,366.696 L533.18,366.728 C533.18,368.152 534.14,369.096 535.276,369.096 Z M545.996,371.192 C543.42,371.192 541.516,369.384 541.516,366.76 L541.516,366.728 C541.516,364.28 543.26,362.264 545.756,362.264 C548.62,362.264 549.932,364.488 549.932,366.92 C549.932,367.112 549.916,367.336 549.9,367.56 L543.932,367.56 C544.172,368.664 544.94,369.24 546.028,369.24 C546.844,369.24 547.436,368.984 548.108,368.36 L549.5,369.592 C548.7,370.584 547.548,371.192 545.996,371.192 Z M543.9,366.04 L547.564,366.04 C547.42,364.952 546.78,364.216 545.756,364.216 C544.748,364.216 544.092,364.936 543.9,366.04 Z M551.74,371 L551.74,362.424 L554.172,362.424 L554.172,364.152 C554.668,362.968 555.468,362.2 556.908,362.264 L556.908,364.808 L556.78,364.808 C555.164,364.808 554.172,365.784 554.172,367.832 L554.172,371 L551.74,371 Z" id="Service-Provider" fill="#000000"></path>
        <path d="M470.088,79.08 C468.59,79.08 467.176,78.562 466,77.512 L467.036,76.28 C467.974,77.092 468.926,77.554 470.13,77.554 C471.194,77.554 471.866,77.05 471.866,76.322 L471.866,76.294 C471.866,75.594 471.474,75.216 469.654,74.796 C467.568,74.292 466.392,73.676 466.392,71.87 L466.392,71.842 C466.392,70.162 467.792,69 469.738,69 C471.166,69 472.3,69.434 473.294,70.232 L472.37,71.534 C471.488,70.876 470.606,70.526 469.71,70.526 C468.702,70.526 468.114,71.044 468.114,71.688 L468.114,71.716 C468.114,72.472 468.562,72.808 470.452,73.256 C472.524,73.76 473.588,74.502 473.588,76.126 L473.588,76.154 C473.588,77.988 472.146,79.08 470.088,79.08 Z M474.568,78.94 L478.88,69.07 L480.476,69.07 L484.788,78.94 L482.968,78.94 L481.974,76.574 L477.34,76.574 L476.332,78.94 L474.568,78.94 Z M477.97,75.048 L481.344,75.048 L479.65,71.128 L477.97,75.048 Z M486.468,78.94 L486.468,69.14 L488.302,69.14 L491.284,73.774 L494.266,69.14 L496.1,69.14 L496.1,78.94 L494.378,78.94 L494.378,71.912 L491.284,76.532 L491.228,76.532 L488.162,71.94 L488.162,78.94 L486.468,78.94 Z M498.62,78.94 L498.62,69.14 L500.342,69.14 L500.342,77.372 L505.494,77.372 L505.494,78.94 L498.62,78.94 Z" id="SAML" fill="#76787F"></path>
        <path d="M273.18,264.46 L273.18,142.359375" id="Line" stroke="#A4A5A9" stroke-linecap="square"></path>
        <path id="Line" d="M708.68,150.859375 L708.68,154.46 L708.68,154.96 L707.68,154.96 L707.68,154.46 L707.68,150.859375 L703.68,150.859375 L708.18,141.859375 L712.68,150.859375 L708.68,150.859375 Z M708.68,264.46 L708.68,264.96 L707.68,264.96 L707.68,264.46 L707.68,259.46 L707.68,258.96 L708.68,258.96 L708.68,259.46 L708.68,264.46 Z M708.68,254.46 L708.68,254.96 L707.68,254.96 L707.68,254.46 L707.68,249.46 L707.68,248.96 L708.68,248.96 L708.68,249.46 L708.68,254.46 Z M708.68,244.46 L708.68,244.96 L707.68,244.96 L707.68,244.46 L707.68,239.46 L707.68,238.96 L708.68,238.96 L708.68,239.46 L708.68,244.46 Z M708.68,234.46 L708.68,234.96 L707.68,234.96 L707.68,234.46 L707.68,229.46 L707.68,228.96 L708.68,228.96 L708.68,229.46 L708.68,234.46 Z M708.68,224.46 L708.68,224.96 L707.68,224.96 L707.68,224.46 L707.68,219.46 L707.68,218.96 L708.68,218.96 L708.68,219.46 L708.68,224.46 Z M708.68,214.46 L708.68,214.96 L707.68,214.96 L707.68,214.46 L707.68,209.46 L707.68,208.96 L708.68,208.96 L708.68,209.46 L708.68,214.46 Z M708.68,204.46 L708.68,204.96 L707.68,204.96 L707.68,204.46 L707.68,199.46 L707.68,198.96 L708.68,198.96 L708.68,199.46 L708.68,204.46 Z M708.68,194.46 L708.68,194.96 L707.68,194.96 L707.68,194.46 L707.68,189.46 L707.68,188.96 L708.68,188.96 L708.68,189.46 L708.68,194.46 Z M708.68,184.46 L708.68,184.96 L707.68,184.96 L707.68,184.46 L707.68,179.46 L707.68,178.96 L708.68,178.96 L708.68,179.46 L708.68,184.46 Z M708.68,174.46 L708.68,174.96 L707.68,174.96 L707.68,174.46 L707.68,169.46 L707.68,168.96 L708.68,168.96 L708.68,169.46 L708.68,174.46 Z M708.68,164.46 L708.68,164.96 L707.68,164.96 L707.68,164.46 L707.68,159.46 L707.68,158.96 L708.68,158.96 L708.68,159.46 L708.68,164.46 Z" fill="#00A9E0" fill-rule="nonzero"></path>
        <path id="Line" d="M355.5,264.96 L273.18,264.96 L272.68,264.96 L272.68,263.96 L273.18,263.96 L355.5,263.96 L355.5,259.96 L364.5,264.46 L355.5,268.96 L355.5,264.96 Z" fill="#A4A5A9" fill-rule="nonzero"></path>
        <path id="Line" d="M654.09,62.96 L318.18,62.96 L317.68,62.96 L317.68,61.96 L318.18,61.96 L654.09,61.96 L654.09,57.96 L663.09,62.46 L654.09,66.96 L654.09,62.96 Z" fill="#A4A5A9" fill-rule="nonzero"></path>
        <path id="Line" d="M326.68,86.96 L662.59,86.96 L663.09,86.96 L663.09,87.96 L662.59,87.96 L326.68,87.96 L326.68,91.96 L317.68,87.46 L326.68,82.96 L326.68,86.96 Z" fill="#A4A5A9" fill-rule="nonzero"></path>
        <path id="Line" d="M625.68,263.96 L630.18,263.96 L630.68,263.96 L630.68,264.96 L630.18,264.96 L625.68,264.96 L625.68,268.96 L616.68,264.46 L625.68,259.96 L625.68,263.96 Z M635.18,264.96 L634.68,264.96 L634.68,263.96 L635.18,263.96 L640.18,263.96 L640.68,263.96 L640.68,264.96 L640.18,264.96 L635.18,264.96 Z M645.18,264.96 L644.68,264.96 L644.68,263.96 L645.18,263.96 L650.18,263.96 L650.68,263.96 L650.68,264.96 L650.18,264.96 L645.18,264.96 Z M655.18,264.96 L654.68,264.96 L654.68,263.96 L655.18,263.96 L660.18,263.96 L660.68,263.96 L660.68,264.96 L660.18,264.96 L655.18,264.96 Z M665.18,264.96 L664.68,264.96 L664.68,263.96 L665.18,263.96 L670.18,263.96 L670.68,263.96 L670.68,264.96 L670.18,264.96 L665.18,264.96 Z M675.18,264.96 L674.68,264.96 L674.68,263.96 L675.18,263.96 L680.18,263.96 L680.68,263.96 L680.68,264.96 L680.18,264.96 L675.18,264.96 Z M685.18,264.96 L684.68,264.96 L684.68,263.96 L685.18,263.96 L690.18,263.96 L690.68,263.96 L690.68,264.96 L690.18,264.96 L685.18,264.96 Z M695.18,264.96 L694.68,264.96 L694.68,263.96 L695.18,263.96 L700.18,263.96 L700.68,263.96 L700.68,264.96 L700.18,264.96 L695.18,264.96 Z M705.18,264.96 L704.68,264.96 L704.68,263.96 L705.18,263.96 L708,263.96 L708.5,263.96 L708.5,264.96 L708,264.96 L705.18,264.96 Z" fill="#00A9E0" fill-rule="nonzero"></path>
        <path d="M262.848,129.376 C259.84,129.376 258,127.696 258,124.4 L258,118 L260.464,118 L260.464,124.336 C260.464,126.16 261.376,127.104 262.88,127.104 C264.384,127.104 265.296,126.192 265.296,124.416 L265.296,118 L267.76,118 L267.76,124.32 C267.76,127.712 265.856,129.376 262.848,129.376 Z M273.024,129.36 C271.824,129.36 270.48,128.96 269.344,128.064 L270.384,126.464 C271.312,127.136 272.288,127.488 273.088,127.488 C273.792,127.488 274.112,127.232 274.112,126.848 L274.112,126.816 C274.112,126.288 273.28,126.112 272.336,125.824 C271.136,125.472 269.776,124.912 269.776,123.248 L269.776,123.216 C269.776,121.472 271.184,120.496 272.912,120.496 C274,120.496 275.184,120.864 276.112,121.488 L275.184,123.168 C274.336,122.672 273.488,122.368 272.864,122.368 C272.272,122.368 271.968,122.624 271.968,122.96 L271.968,122.992 C271.968,123.472 272.784,123.696 273.712,124.016 C274.912,124.416 276.304,124.992 276.304,126.56 L276.304,126.592 C276.304,128.496 274.88,129.36 273.024,129.36 Z M282.112,129.392 C279.536,129.392 277.632,127.584 277.632,124.96 L277.632,124.928 C277.632,122.48 279.376,120.464 281.872,120.464 C284.736,120.464 286.048,122.688 286.048,125.12 C286.048,125.312 286.032,125.536 286.016,125.76 L280.048,125.76 C280.288,126.864 281.056,127.44 282.144,127.44 C282.96,127.44 283.552,127.184 284.224,126.56 L285.616,127.792 C284.816,128.784 283.664,129.392 282.112,129.392 Z M280.016,124.24 L283.68,124.24 C283.536,123.152 282.896,122.416 281.872,122.416 C280.864,122.416 280.208,123.136 280.016,124.24 Z M287.856,129.2 L287.856,120.624 L290.288,120.624 L290.288,122.352 C290.784,121.168 291.584,120.4 293.024,120.464 L293.024,123.008 L292.896,123.008 C291.28,123.008 290.288,123.984 290.288,126.032 L290.288,129.2 L287.856,129.2 Z" id="User" fill="#000000"></path>
        <path d="M641,128.68 L641,117.48 L643.464,117.48 L643.464,128.68 L641,128.68 Z M649.528,128.84 C647.528,128.84 645.624,127.272 645.624,124.408 L645.624,124.376 C645.624,121.512 647.496,119.944 649.528,119.944 C650.824,119.944 651.624,120.536 652.2,121.224 L652.2,117 L654.632,117 L654.632,128.68 L652.2,128.68 L652.2,127.448 C651.608,128.248 650.792,128.84 649.528,128.84 Z M650.152,126.776 C651.288,126.776 652.232,125.832 652.232,124.408 L652.232,124.376 C652.232,122.952 651.288,122.008 650.152,122.008 C649.016,122.008 648.056,122.936 648.056,124.376 L648.056,124.408 C648.056,125.832 649.016,126.776 650.152,126.776 Z M660.872,128.872 C658.296,128.872 656.392,127.064 656.392,124.44 L656.392,124.408 C656.392,121.96 658.136,119.944 660.632,119.944 C663.496,119.944 664.808,122.168 664.808,124.6 C664.808,124.792 664.792,125.016 664.776,125.24 L658.808,125.24 C659.048,126.344 659.816,126.92 660.904,126.92 C661.72,126.92 662.312,126.664 662.984,126.04 L664.376,127.272 C663.576,128.264 662.424,128.872 660.872,128.872 Z M658.776,123.72 L662.44,123.72 C662.296,122.632 661.656,121.896 660.632,121.896 C659.624,121.896 658.968,122.616 658.776,123.72 Z M666.616,128.68 L666.616,120.104 L669.048,120.104 L669.048,121.32 C669.608,120.6 670.328,119.944 671.56,119.944 C673.4,119.944 674.472,121.16 674.472,123.128 L674.472,128.68 L672.04,128.68 L672.04,123.896 C672.04,122.744 671.496,122.152 670.568,122.152 C669.64,122.152 669.048,122.744 669.048,123.896 L669.048,128.68 L666.616,128.68 Z M679.48,128.824 C677.992,128.824 676.984,128.232 676.984,126.248 L676.984,122.184 L675.96,122.184 L675.96,120.104 L676.984,120.104 L676.984,117.912 L679.416,117.912 L679.416,120.104 L681.432,120.104 L681.432,122.184 L679.416,122.184 L679.416,125.848 C679.416,126.408 679.656,126.68 680.2,126.68 C680.648,126.68 681.048,126.568 681.4,126.376 L681.4,128.328 C680.888,128.632 680.296,128.824 679.48,128.824 Z M683.272,119.16 L683.272,117 L685.832,117 L685.832,119.16 L683.272,119.16 Z M683.336,128.68 L683.336,120.104 L685.768,120.104 L685.768,128.68 L683.336,128.68 Z M690.952,128.824 C689.464,128.824 688.456,128.232 688.456,126.248 L688.456,122.184 L687.432,122.184 L687.432,120.104 L688.456,120.104 L688.456,117.912 L690.888,117.912 L690.888,120.104 L692.904,120.104 L692.904,122.184 L690.888,122.184 L690.888,125.848 C690.888,126.408 691.128,126.68 691.672,126.68 C692.12,126.68 692.52,126.568 692.872,126.376 L692.872,128.328 C692.36,128.632 691.768,128.824 690.952,128.824 Z M698.456,125.944 L700.328,120.104 L702.856,120.104 L699.56,128.888 C698.904,130.632 698.2,131.288 696.744,131.288 C695.864,131.288 695.208,131.064 694.584,130.696 L695.4,128.936 C695.72,129.128 696.12,129.272 696.44,129.272 C696.856,129.272 697.08,129.144 697.288,128.712 L693.928,120.104 L696.504,120.104 L698.456,125.944 Z M709.352,128.68 L709.352,117.48 L713.928,117.48 C716.6,117.48 718.216,119.064 718.216,121.352 L718.216,121.384 C718.216,123.976 716.2,125.32 713.688,125.32 L711.816,125.32 L711.816,128.68 L709.352,128.68 Z M711.816,123.128 L713.768,123.128 C715,123.128 715.72,122.392 715.72,121.432 L715.72,121.4 C715.72,120.296 714.952,119.704 713.72,119.704 L711.816,119.704 L711.816,123.128 Z M719.784,128.68 L719.784,120.104 L722.216,120.104 L722.216,121.832 C722.712,120.648 723.512,119.88 724.952,119.944 L724.952,122.488 L724.824,122.488 C723.208,122.488 722.216,123.464 722.216,125.512 L722.216,128.68 L719.784,128.68 Z M730.44,128.872 C727.784,128.872 725.816,126.904 725.816,124.44 L725.816,124.408 C725.816,121.944 727.8,119.944 730.472,119.944 C733.128,119.944 735.096,121.912 735.096,124.376 L735.096,124.408 C735.096,126.872 733.112,128.872 730.44,128.872 Z M730.472,126.776 C731.864,126.776 732.696,125.704 732.696,124.44 L732.696,124.408 C732.696,123.144 731.784,122.04 730.44,122.04 C729.048,122.04 728.216,123.112 728.216,124.376 L728.216,124.408 C728.216,125.672 729.128,126.776 730.472,126.776 Z M738.984,128.744 L735.608,120.104 L738.184,120.104 L740.104,125.848 L742.04,120.104 L744.568,120.104 L741.192,128.744 L738.984,128.744 Z M746.024,119.16 L746.024,117 L748.584,117 L748.584,119.16 L746.024,119.16 Z M746.088,128.68 L746.088,120.104 L748.52,120.104 L748.52,128.68 L746.088,128.68 Z M754.328,128.84 C752.328,128.84 750.424,127.272 750.424,124.408 L750.424,124.376 C750.424,121.512 752.296,119.944 754.328,119.944 C755.624,119.944 756.424,120.536 757,121.224 L757,117 L759.432,117 L759.432,128.68 L757,128.68 L757,127.448 C756.408,128.248 755.592,128.84 754.328,128.84 Z M754.952,126.776 C756.088,126.776 757.032,125.832 757.032,124.408 L757.032,124.376 C757.032,122.952 756.088,122.008 754.952,122.008 C753.816,122.008 752.856,122.936 752.856,124.376 L752.856,124.408 C752.856,125.832 753.816,126.776 754.952,126.776 Z M765.672,128.872 C763.096,128.872 761.192,127.064 761.192,124.44 L761.192,124.408 C761.192,121.96 762.936,119.944 765.432,119.944 C768.296,119.944 769.608,122.168 769.608,124.6 C769.608,124.792 769.592,125.016 769.576,125.24 L763.608,125.24 C763.848,126.344 764.616,126.92 765.704,126.92 C766.52,126.92 767.112,126.664 767.784,126.04 L769.176,127.272 C768.376,128.264 767.224,128.872 765.672,128.872 Z M763.576,123.72 L767.24,123.72 C767.096,122.632 766.456,121.896 765.432,121.896 C764.424,121.896 763.768,122.616 763.576,123.72 Z M771.416,128.68 L771.416,120.104 L773.848,120.104 L773.848,121.832 C774.344,120.648 775.144,119.88 776.584,119.944 L776.584,122.488 L776.456,122.488 C774.84,122.488 773.848,123.464 773.848,125.512 L773.848,128.68 L771.416,128.68 Z" id="Identity-Provider" fill="#000000"></path>
        <path d="M462,327.3 L465.19,320.25 L465.93,320.25 L469.12,327.3 L468.27,327.3 L467.45,325.45 L463.64,325.45 L462.81,327.3 L462,327.3 Z M463.95,324.73 L467.14,324.73 L465.55,321.17 L463.95,324.73 Z M470.37,327.3 L470.37,322.13 L471.14,322.13 L471.14,323.03 C471.48,322.47 472.02,322.02 472.91,322.02 C474.16,322.02 474.89,322.86 474.89,324.09 L474.89,327.3 L474.12,327.3 L474.12,324.28 C474.12,323.32 473.6,322.72 472.69,322.72 C471.8,322.72 471.14,323.37 471.14,324.34 L471.14,327.3 L470.37,327.3 Z M478.7,327.41 C477.46,327.41 476.23,326.43 476.23,324.73 L476.23,324.71 C476.23,323.02 477.46,322.02 478.7,322.02 C479.66,322.02 480.28,322.54 480.68,323.12 L480.68,320 L481.45,320 L481.45,327.3 L480.68,327.3 L480.68,326.26 C480.26,326.88 479.65,327.41 478.7,327.41 Z M478.84,326.72 C479.8,326.72 480.71,325.91 480.71,324.72 L480.71,324.7 C480.71,323.51 479.8,322.71 478.84,322.71 C477.84,322.71 477.02,323.45 477.02,324.7 L477.02,324.72 C477.02,325.94 477.87,326.72 478.84,326.72 Z M486.17,327.3 L486.17,322.13 L486.94,322.13 L486.94,323 C487.28,322.49 487.74,322.02 488.61,322.02 C489.45,322.02 489.99,322.47 490.27,323.05 C490.64,322.48 491.19,322.02 492.09,322.02 C493.28,322.02 494.01,322.82 494.01,324.1 L494.01,327.3 L493.24,327.3 L493.24,324.28 C493.24,323.28 492.74,322.72 491.9,322.72 C491.12,322.72 490.48,323.3 490.48,324.32 L490.48,327.3 L489.71,327.3 L489.71,324.26 C489.71,323.29 489.2,322.72 488.38,322.72 C487.56,322.72 486.94,323.4 486.94,324.35 L486.94,327.3 L486.17,327.3 Z M498.04,327.42 C496.49,327.42 495.36,326.2 495.36,324.74 L495.36,324.72 C495.36,323.26 496.5,322.02 498.06,322.02 C499.61,322.02 500.75,323.24 500.75,324.7 L500.75,324.72 C500.75,326.18 499.6,327.42 498.04,327.42 Z M498.06,326.73 C499.18,326.73 499.96,325.83 499.96,324.74 L499.96,324.72 C499.96,323.61 499.13,322.7 498.04,322.7 C496.92,322.7 496.15,323.61 496.15,324.7 L496.15,324.72 C496.15,325.83 496.97,326.73 498.06,326.73 Z M502.14,327.3 L502.14,322.13 L502.91,322.13 L502.91,323.48 C503.29,322.62 504.04,322 505.02,322.04 L505.02,322.87 L504.96,322.87 C503.83,322.87 502.91,323.68 502.91,325.24 L502.91,327.3 L502.14,327.3 Z M508.23,327.42 C506.81,327.42 505.65,326.33 505.65,324.73 L505.65,324.71 C505.65,323.22 506.7,322.02 508.13,322.02 C509.66,322.02 510.54,323.24 510.54,324.75 C510.54,324.85 510.54,324.91 510.53,325 L506.43,325 C506.54,326.12 507.33,326.75 508.25,326.75 C508.96,326.75 509.46,326.46 509.88,326.02 L510.36,326.45 C509.84,327.03 509.21,327.42 508.23,327.42 Z M506.43,324.43 L509.76,324.43 C509.68,323.49 509.14,322.67 508.11,322.67 C507.21,322.67 506.53,323.42 506.43,324.43 Z M516.5,327.3 L516.5,326.27 L517.4,326.27 L517.4,327.3 L516.5,327.3 Z M514.1,327.3 L514.1,326.27 L514.99,326.27 L514.99,327.3 L514.1,327.3 Z M511.7,327.3 L511.7,326.27 L512.59,326.27 L512.59,327.3 L511.7,327.3 Z" id="And-more" fill="#76787F"></path>
        <rect id="Rectangle" fill="#FFFFFF" x="656" y="206" width="99" height="40"></rect>
        <rect id="Rectangle" fill="#FFFFFF" x="224" y="185" width="99" height="25"></rect>
        <path d="M258.088,202.08 C256.59,202.08 255.176,201.562 254,200.512 L255.036,199.28 C255.974,200.092 256.926,200.554 258.13,200.554 C259.194,200.554 259.866,200.05 259.866,199.322 L259.866,199.294 C259.866,198.594 259.474,198.216 257.654,197.796 C255.568,197.292 254.392,196.676 254.392,194.87 L254.392,194.842 C254.392,193.162 255.792,192 257.738,192 C259.166,192 260.3,192.434 261.294,193.232 L260.37,194.534 C259.488,193.876 258.606,193.526 257.71,193.526 C256.702,193.526 256.114,194.044 256.114,194.688 L256.114,194.716 C256.114,195.472 256.562,195.808 258.452,196.256 C260.524,196.76 261.588,197.502 261.588,199.126 L261.588,199.154 C261.588,200.988 260.146,202.08 258.088,202.08 Z M262.568,201.94 L266.88,192.07 L268.476,192.07 L272.788,201.94 L270.968,201.94 L269.974,199.574 L265.34,199.574 L264.332,201.94 L262.568,201.94 Z M265.97,198.048 L269.344,198.048 L267.65,194.128 L265.97,198.048 Z M274.468,201.94 L274.468,192.14 L276.302,192.14 L279.284,196.774 L282.266,192.14 L284.1,192.14 L284.1,201.94 L282.378,201.94 L282.378,194.912 L279.284,199.532 L279.228,199.532 L276.162,194.94 L276.162,201.94 L274.468,201.94 Z M286.62,201.94 L286.62,192.14 L288.342,192.14 L288.342,200.372 L293.494,200.372 L293.494,201.94 L286.62,201.94 Z" id="SAML" fill="#76787F"></path>
        <path d="M684.67,222.22 L684.67,214.016 L681.562,214.016 L681.562,212.42 L689.514,212.42 L689.514,214.016 L686.406,214.016 L686.406,222.22 L684.67,222.22 Z M690.13,222.22 L690.13,214.828 L691.824,214.828 L691.824,216.494 C692.286,215.388 693.14,214.632 694.442,214.688 L694.442,216.48 L694.344,216.48 C692.86,216.48 691.824,217.446 691.824,219.406 L691.824,222.22 L690.13,222.22 Z M698.46,222.374 C696.794,222.374 695.828,221.254 695.828,219.532 L695.828,214.828 L697.522,214.828 L697.522,219.028 C697.522,220.176 698.096,220.82 699.104,220.82 C700.084,220.82 700.77,220.148 700.77,219 L700.77,214.828 L702.478,214.828 L702.478,222.22 L700.77,222.22 L700.77,221.072 C700.294,221.772 699.608,222.374 698.46,222.374 Z M707.126,222.36 C706.076,222.36 704.914,221.982 703.99,221.254 L704.746,220.106 C705.558,220.708 706.412,221.016 707.168,221.016 C707.896,221.016 708.316,220.708 708.316,220.218 L708.316,220.19 C708.316,219.616 707.532,219.42 706.664,219.154 C705.572,218.846 704.354,218.398 704.354,216.984 L704.354,216.956 C704.354,215.556 705.516,214.702 706.986,214.702 C707.91,214.702 708.918,215.024 709.702,215.542 L709.03,216.746 C708.316,216.312 707.56,216.046 706.944,216.046 C706.286,216.046 705.908,216.354 705.908,216.774 L705.908,216.802 C705.908,217.348 706.706,217.572 707.574,217.852 C708.652,218.188 709.87,218.678 709.87,220.008 L709.87,220.036 C709.87,221.59 708.666,222.36 707.126,222.36 Z M713.944,222.346 C712.698,222.346 711.816,221.8 711.816,220.176 L711.816,216.284 L710.878,216.284 L710.878,214.828 L711.816,214.828 L711.816,212.798 L713.51,212.798 L713.51,214.828 L715.498,214.828 L715.498,216.284 L713.51,216.284 L713.51,219.91 C713.51,220.568 713.846,220.834 714.42,220.834 C714.798,220.834 715.134,220.75 715.47,220.582 L715.47,221.968 C715.05,222.206 714.588,222.346 713.944,222.346 Z M720.398,222.388 C718.256,222.388 716.604,220.834 716.604,218.552 L716.604,218.524 C716.604,216.41 718.102,214.674 720.216,214.674 C722.568,214.674 723.758,216.522 723.758,218.65 C723.758,218.804 723.744,218.958 723.73,219.126 L718.298,219.126 C718.48,220.33 719.334,221.002 720.426,221.002 C721.252,221.002 721.84,220.694 722.428,220.12 L723.422,221.002 C722.722,221.842 721.756,222.388 720.398,222.388 Z M718.284,218.006 L722.078,218.006 C721.966,216.914 721.322,216.06 720.202,216.06 C719.166,216.06 718.438,216.858 718.284,218.006 Z M728.518,222.374 C726.782,222.374 725.088,220.988 725.088,218.538 L725.088,218.51 C725.088,216.06 726.754,214.674 728.518,214.674 C729.736,214.674 730.506,215.276 731.038,215.976 L731.038,212 L732.732,212 L732.732,222.22 L731.038,222.22 L731.038,220.988 C730.492,221.758 729.722,222.374 728.518,222.374 Z M728.924,220.904 C730.058,220.904 731.066,219.952 731.066,218.538 L731.066,218.51 C731.066,217.082 730.058,216.144 728.924,216.144 C727.762,216.144 726.796,217.04 726.796,218.51 L726.796,218.538 C726.796,219.966 727.776,220.904 728.924,220.904 Z M665,238.22 L665,228.42 L669.368,228.42 C670.6,228.42 671.566,228.784 672.196,229.4 C672.714,229.932 673.008,230.66 673.008,231.514 L673.008,231.542 C673.008,233.152 672.042,234.118 670.684,234.51 L673.33,238.22 L671.286,238.22 L668.878,234.804 L666.722,234.804 L666.722,238.22 L665,238.22 Z M666.722,233.278 L669.242,233.278 C670.474,233.278 671.258,232.634 671.258,231.64 L671.258,231.612 C671.258,230.562 670.502,229.988 669.228,229.988 L666.722,229.988 L666.722,233.278 Z M678.174,238.388 C676.032,238.388 674.38,236.834 674.38,234.552 L674.38,234.524 C674.38,232.41 675.878,230.674 677.992,230.674 C680.344,230.674 681.534,232.522 681.534,234.65 C681.534,234.804 681.52,234.958 681.506,235.126 L676.074,235.126 C676.256,236.33 677.11,237.002 678.202,237.002 C679.028,237.002 679.616,236.694 680.204,236.12 L681.198,237.002 C680.498,237.842 679.532,238.388 678.174,238.388 Z M676.06,234.006 L679.854,234.006 C679.742,232.914 679.098,232.06 677.978,232.06 C676.942,232.06 676.214,232.858 676.06,234.006 Z M683.34,238.22 L683.34,228 L685.034,228 L685.034,238.22 L683.34,238.22 Z M689.374,238.374 C687.988,238.374 686.756,237.576 686.756,236.092 L686.756,236.064 C686.756,234.468 688.002,233.684 689.808,233.684 C690.634,233.684 691.222,233.81 691.796,233.992 L691.796,233.81 C691.796,232.76 691.152,232.2 689.962,232.2 C689.136,232.2 688.52,232.382 687.848,232.662 L687.4,231.332 C688.212,230.968 689.01,230.73 690.186,230.73 C691.292,230.73 692.118,231.024 692.636,231.556 C693.182,232.088 693.434,232.872 693.434,233.838 L693.434,238.22 L691.782,238.22 L691.782,237.296 C691.278,237.898 690.508,238.374 689.374,238.374 Z M689.85,237.142 C690.97,237.142 691.824,236.498 691.824,235.56 L691.824,235.056 C691.39,234.888 690.816,234.762 690.144,234.762 C689.052,234.762 688.408,235.224 688.408,235.994 L688.408,236.022 C688.408,236.736 689.038,237.142 689.85,237.142 Z M697.872,238.346 C696.626,238.346 695.744,237.8 695.744,236.176 L695.744,232.284 L694.806,232.284 L694.806,230.828 L695.744,230.828 L695.744,228.798 L697.438,228.798 L697.438,230.828 L699.426,230.828 L699.426,232.284 L697.438,232.284 L697.438,235.91 C697.438,236.568 697.774,236.834 698.348,236.834 C698.726,236.834 699.062,236.75 699.398,236.582 L699.398,237.968 C698.978,238.206 698.516,238.346 697.872,238.346 Z M701.176,229.694 L701.176,228.084 L702.996,228.084 L702.996,229.694 L701.176,229.694 Z M701.246,238.22 L701.246,230.828 L702.94,230.828 L702.94,238.22 L701.246,238.22 Z M708.666,238.388 C706.412,238.388 704.746,236.666 704.746,234.566 L704.746,234.538 C704.746,232.424 706.426,230.674 708.694,230.674 C710.962,230.674 712.628,232.396 712.628,234.51 L712.628,234.538 C712.628,236.638 710.948,238.388 708.666,238.388 Z M708.694,236.904 C710.066,236.904 710.934,235.84 710.934,234.566 L710.934,234.538 C710.934,233.236 709.996,232.158 708.666,232.158 C707.308,232.158 706.44,233.222 706.44,234.51 L706.44,234.538 C706.44,235.826 707.378,236.904 708.694,236.904 Z M714.35,238.22 L714.35,230.828 L716.044,230.828 L716.044,231.962 C716.52,231.276 717.206,230.674 718.354,230.674 C720.02,230.674 720.986,231.794 720.986,233.502 L720.986,238.22 L719.292,238.22 L719.292,234.02 C719.292,232.872 718.718,232.214 717.71,232.214 C716.73,232.214 716.044,232.9 716.044,234.048 L716.044,238.22 L714.35,238.22 Z M725.564,238.36 C724.514,238.36 723.352,237.982 722.428,237.254 L723.184,236.106 C723.996,236.708 724.85,237.016 725.606,237.016 C726.334,237.016 726.754,236.708 726.754,236.218 L726.754,236.19 C726.754,235.616 725.97,235.42 725.102,235.154 C724.01,234.846 722.792,234.398 722.792,232.984 L722.792,232.956 C722.792,231.556 723.954,230.702 725.424,230.702 C726.348,230.702 727.356,231.024 728.14,231.542 L727.468,232.746 C726.754,232.312 725.998,232.046 725.382,232.046 C724.724,232.046 724.346,232.354 724.346,232.774 L724.346,232.802 C724.346,233.348 725.144,233.572 726.012,233.852 C727.09,234.188 728.308,234.678 728.308,236.008 L728.308,236.036 C728.308,237.59 727.104,238.36 725.564,238.36 Z M730.044,238.22 L730.044,228 L731.738,228 L731.738,231.962 C732.214,231.276 732.9,230.674 734.048,230.674 C735.714,230.674 736.68,231.794 736.68,233.502 L736.68,238.22 L734.986,238.22 L734.986,234.02 C734.986,232.872 734.412,232.214 733.404,232.214 C732.424,232.214 731.738,232.9 731.738,234.048 L731.738,238.22 L730.044,238.22 Z M738.752,229.694 L738.752,228.084 L740.572,228.084 L740.572,229.694 L738.752,229.694 Z M738.822,238.22 L738.822,230.828 L740.516,230.828 L740.516,238.22 L738.822,238.22 Z M742.728,240.46 L742.728,230.828 L744.422,230.828 L744.422,232.06 C744.968,231.29 745.738,230.674 746.942,230.674 C748.678,230.674 750.372,232.046 750.372,234.51 L750.372,234.538 C750.372,236.988 748.692,238.374 746.942,238.374 C745.71,238.374 744.94,237.758 744.422,237.072 L744.422,240.46 L742.728,240.46 Z M746.536,236.904 C747.698,236.904 748.65,235.994 748.65,234.538 L748.65,234.51 C748.65,233.082 747.684,232.144 746.536,232.144 C745.388,232.144 744.38,233.096 744.38,234.51 L744.38,234.538 C744.38,235.952 745.388,236.904 746.536,236.904 Z" id="Trusted-Relationship" fill="#76787F"></path>
    </g>
</svg>